<svg width="28" height="28" viewBox="0 0 101 101" fill="none" xmlns="http://www.w3.org/2000/svg">
<g clip-path="url(#clip0_17_22)">
<path d="M82.2098 13.1385L75.2408 6.16109C73.2909 4.20132 70.9717 2.64771 68.4175 1.59018C65.8632 0.532646 63.1246 -0.00781063 60.3601 8.52837e-05H33.6666C28.0881 0.00676752 22.7399 2.2258 18.7953 6.17043C14.8507 10.1151 12.6317 15.4632 12.625 21.0418V79.9584C12.6317 85.537 14.8507 90.8851 18.7953 94.8298C22.7399 98.7744 28.0881 100.993 33.6666 101H67.3333C72.9118 100.993 78.26 98.7744 82.2046 94.8298C86.1493 90.8851 88.3683 85.537 88.375 79.9584V28.015C88.3818 25.2509 87.8404 22.5128 86.7821 19.9593C85.7239 17.4058 84.1698 15.0875 82.2098 13.1385V13.1385ZM76.2592 19.0891C76.8561 19.6838 77.3905 20.3381 77.8541 21.0418H67.3333V10.5209C68.0358 10.9894 68.6912 11.525 69.2902 12.1201L76.2592 19.0891ZM79.9583 79.9584C79.9583 83.3068 78.6282 86.518 76.2605 88.8857C73.8929 91.2533 70.6817 92.5834 67.3333 92.5834H33.6666C30.3183 92.5834 27.1071 91.2533 24.7394 88.8857C22.3718 86.518 21.0416 83.3068 21.0416 79.9584V21.0418C21.0416 17.6934 22.3718 14.4822 24.7394 12.1145C27.1071 9.74688 30.3183 8.41675 33.6666 8.41675H58.9166V21.0418C58.9166 23.274 59.8034 25.4148 61.3818 26.9932C62.9602 28.5717 65.1011 29.4584 67.3333 29.4584H79.9583V79.9584ZM67.3333 37.8751C68.4494 37.8751 69.5198 38.3185 70.309 39.1077C71.0983 39.8969 71.5416 40.9673 71.5416 42.0834C71.5416 43.1995 71.0983 44.2699 70.309 45.0592C69.5198 45.8484 68.4494 46.2918 67.3333 46.2918H33.6666C32.5505 46.2918 31.4801 45.8484 30.6909 45.0592C29.9017 44.2699 29.4583 43.1995 29.4583 42.0834C29.4583 40.9673 29.9017 39.8969 30.6909 39.1077C31.4801 38.3185 32.5505 37.8751 33.6666 37.8751H67.3333ZM71.5416 58.9168C71.5416 60.0329 71.0983 61.1033 70.309 61.8925C69.5198 62.6817 68.4494 63.1251 67.3333 63.1251H33.6666C32.5505 63.1251 31.4801 62.6817 30.6909 61.8925C29.9017 61.1033 29.4583 60.0329 29.4583 58.9168C29.4583 57.8006 29.9017 56.7302 30.6909 55.941C31.4801 55.1518 32.5505 54.7084 33.6666 54.7084H67.3333C68.4494 54.7084 69.5198 55.1518 70.309 55.941C71.0983 56.7302 71.5416 57.8006 71.5416 58.9168ZM70.7336 73.2798C71.3878 74.1798 71.659 75.3022 71.4878 76.4015C71.3167 77.5009 70.7172 78.4877 69.8204 79.1462C65.5566 82.1845 60.5065 83.9277 55.2764 84.1668C52.2207 84.152 49.2578 83.115 46.8598 81.2209C45.4794 80.2741 44.9534 79.9584 43.9139 79.9584C41.1003 80.3938 38.4457 81.5444 36.2043 83.2999C35.3152 83.9336 34.2147 84.197 33.1351 84.0346C32.0555 83.8721 31.0812 83.2963 30.4182 82.429C29.7551 81.5616 29.455 80.4705 29.5814 79.386C29.7077 78.3016 30.2506 77.3087 31.0953 76.617C34.8036 73.7382 39.2565 71.9775 43.9308 71.5418C46.7341 71.5865 49.4442 72.5555 51.6404 74.2982C52.6415 75.1987 53.9305 75.7133 55.2764 75.7501C58.7175 75.4923 62.0265 74.3167 64.8588 72.3456C65.7619 71.6909 66.888 71.4216 67.9896 71.5968C69.0912 71.772 70.0781 72.3773 70.7336 73.2798V73.2798Z" fill="white"/>
</g>
<defs>
<clipPath id="clip0_17_22">
<rect width="101" height="101" fill="white"/>
</clipPath>
</defs>
</svg>
