<svg width="28" height="28" viewBox="0 0 85 85" fill="none" xmlns="http://www.w3.org/2000/svg">
<g clip-path="url(#clip0_14_15)">
<path d="M83.9615 78.9569L62.8213 57.8167C68.5823 50.7709 71.4147 41.7804 70.7328 32.7047C70.051 23.6291 65.9069 15.1627 59.1578 9.05687C52.4087 2.951 43.5709 -0.327233 34.4725 -0.0997452C25.3742 0.127742 16.7113 3.84354 10.2758 10.2791C3.84025 16.7146 0.124447 25.3775 -0.103041 34.4758C-0.330529 43.5742 2.9477 52.412 9.05357 59.1611C15.1594 65.9102 23.6258 70.0543 32.7014 70.7361C41.7771 71.418 50.7676 68.5856 57.8134 62.8246L78.9536 83.9648C79.6216 84.61 80.5162 84.967 81.4448 84.9589C82.3734 84.9508 83.2617 84.5783 83.9184 83.9217C84.575 83.265 84.9475 82.3767 84.9556 81.4481C84.9637 80.5195 84.6067 79.6249 83.9615 78.9569ZM35.4159 63.7525C29.8121 63.7525 24.3341 62.0908 19.6747 58.9775C15.0153 55.8642 11.3838 51.4391 9.23931 46.2619C7.09482 41.0846 6.53373 35.3878 7.62698 29.8916C8.72023 24.3955 11.4187 19.347 15.3812 15.3845C19.3437 11.422 24.3922 8.72352 29.8883 7.63027C35.3845 6.53703 41.0814 7.09812 46.2586 9.2426C51.4358 11.3871 55.8609 15.0186 58.9742 19.678C62.0875 24.3374 63.7492 29.8154 63.7492 35.4192C63.7408 42.9311 60.753 50.1329 55.4413 55.4446C50.1296 60.7563 42.9278 63.7441 35.4159 63.7525Z" fill="white"/>
</g>
<defs>
<clipPath id="clip0_14_15">
<rect width="85" height="85" fill="white"/>
</clipPath>
</defs>
</svg>
