<svg width="28" height="28" viewBox="0 0 78 78" fill="none" xmlns="http://www.w3.org/2000/svg">
<g clip-path="url(#clip0_14_4)">
<path d="M65 0H13C9.55219 0 6.24558 1.36964 3.80761 3.80761C1.36964 6.24558 0 9.55219 0 13L0 52C0 55.4478 1.36964 58.7544 3.80761 61.1924C6.24558 63.6304 9.55219 65 13 65H22.425L36.8907 77.2298C37.4776 77.7264 38.2215 77.9989 38.9902 77.9989C39.759 77.9989 40.5029 77.7264 41.0897 77.2298L55.575 65H65C68.4478 65 71.7544 63.6304 74.1924 61.1924C76.6304 58.7544 78 55.4478 78 52V13C78 9.55219 76.6304 6.24558 74.1924 3.80761C71.7544 1.36964 68.4478 0 65 0V0ZM71.5 52C71.5 53.7239 70.8152 55.3772 69.5962 56.5962C68.3772 57.8152 66.7239 58.5 65 58.5H55.575C54.0387 58.5005 52.5522 59.0451 51.3793 60.0372L39 70.4925L26.6272 60.0372C25.4526 59.0436 23.9635 58.4989 22.425 58.5H13C11.2761 58.5 9.62279 57.8152 8.40381 56.5962C7.18482 55.3772 6.5 53.7239 6.5 52V13C6.5 11.2761 7.18482 9.62279 8.40381 8.40381C9.62279 7.18482 11.2761 6.5 13 6.5H65C66.7239 6.5 68.3772 7.18482 69.5962 8.40381C70.8152 9.62279 71.5 11.2761 71.5 13V52Z" fill="white"/>
<path d="M22.75 22.7505H39C39.862 22.7505 40.6886 22.4081 41.2981 21.7986C41.9076 21.1891 42.25 20.3624 42.25 19.5005C42.25 18.6385 41.9076 17.8119 41.2981 17.2024C40.6886 16.5929 39.862 16.2505 39 16.2505H22.75C21.888 16.2505 21.0614 16.5929 20.4519 17.2024C19.8424 17.8119 19.5 18.6385 19.5 19.5005C19.5 20.3624 19.8424 21.1891 20.4519 21.7986C21.0614 22.4081 21.888 22.7505 22.75 22.7505Z" fill="white"/>
<path d="M55.25 29.25H22.75C21.888 29.25 21.0614 29.5924 20.4519 30.2019C19.8424 30.8114 19.5 31.638 19.5 32.5C19.5 33.3619 19.8424 34.1886 20.4519 34.7981C21.0614 35.4076 21.888 35.75 22.75 35.75H55.25C56.112 35.75 56.9386 35.4076 57.5481 34.7981C58.1576 34.1886 58.5 33.3619 58.5 32.5C58.5 31.638 58.1576 30.8114 57.5481 30.2019C56.9386 29.5924 56.112 29.25 55.25 29.25Z" fill="white"/>
<path d="M55.25 42.2495H22.75C21.888 42.2495 21.0614 42.5919 20.4519 43.2014C19.8424 43.8109 19.5 44.6376 19.5 45.4995C19.5 46.3615 19.8424 47.1881 20.4519 47.7976C21.0614 48.4071 21.888 48.7495 22.75 48.7495H55.25C56.112 48.7495 56.9386 48.4071 57.5481 47.7976C58.1576 47.1881 58.5 46.3615 58.5 45.4995C58.5 44.6376 58.1576 43.8109 57.5481 43.2014C56.9386 42.5919 56.112 42.2495 55.25 42.2495Z" fill="white"/>
</g>
<defs>
<clipPath id="clip0_14_4">
<rect width="78" height="78" fill="white"/>
</clipPath>
</defs>
</svg>
