<svg width="28" height="28" viewBox="0 0 108 108" fill="none" xmlns="http://www.w3.org/2000/svg">
<path d="M53.9482 3C60.9398 3 67.4867 4.33745 73.6182 6.99902L73.6357 7.00684C79.8443 9.65474 85.2669 13.3226 89.9248 18.0156L89.9316 18.0225C94.6319 22.7252 98.3199 28.1598 101.002 34.3447L101.004 34.3496C103.662 40.447 105 46.9783 105 53.9736C105 61.0038 103.662 67.5701 101.004 73.7021C98.3225 79.8528 94.6344 85.2712 89.9316 89.9766L89.9248 89.9844C85.2642 94.68 79.8563 98.3484 73.6826 100.995L73.6709 101C67.5385 103.662 60.9915 105 54 105C47.0085 105 40.462 103.662 34.3301 101L34.3174 100.995L33.168 100.486C27.4658 97.8844 22.4208 94.3829 18.0166 89.9766C13.317 85.2746 9.63021 79.8609 6.94922 73.7158C4.32171 67.5806 3 61.0095 3 53.9736C3.00006 46.9757 4.32127 40.4429 6.94629 34.3447C9.62887 28.1588 13.2989 22.7241 17.9639 18.0225L17.9648 18.0234C22.6626 13.3234 28.0895 9.65298 34.2656 7.00488L34.2783 6.99902C40.4101 4.33746 46.9567 3 53.9482 3ZM73.5703 27.7168C70.4281 27.7168 68.0474 29.4987 66.4258 32.0674L66.4189 32.0781L47.8018 61.8428L40.8652 53.1406L40.8623 53.1367L40.5352 52.7422C39.7678 51.8535 38.8802 51.0718 37.8467 50.543C36.6853 49.9149 35.4205 49.627 34.1191 49.627C31.8618 49.627 29.8554 50.4715 28.2852 52.0967C26.7306 53.67 25.9414 55.6522 25.9414 57.8594C25.9415 58.9081 26.1261 59.9324 26.4883 60.916L26.5225 61.0078L26.5625 61.0967C26.942 61.9509 27.4401 62.7767 28.0273 63.5742L28.0791 63.6455L28.1357 63.7129L40.6123 78.7334C41.5473 79.9109 42.6295 80.9057 43.8877 81.6104L43.9287 81.6328L43.9697 81.6543C45.301 82.3467 46.7495 82.666 48.2529 82.666C49.7767 82.666 51.2343 82.3046 52.5664 81.5586L52.6016 81.5391C53.9032 80.7871 54.9859 79.7668 55.8457 78.5244L55.8721 78.4854L55.8984 78.4453L80.0762 41.0479L80.0752 41.0469C80.5133 40.3699 80.8825 39.6579 81.1807 38.9121L81.3037 38.5908C81.6884 37.6361 81.9033 36.6294 81.9033 35.5859C81.9033 33.2668 80.9701 31.2425 79.1738 29.7656H79.1748C79.1701 29.7617 79.1649 29.7579 79.1602 29.7539C79.1529 29.748 79.146 29.7413 79.1387 29.7354H79.1377C77.542 28.4098 75.6497 27.7168 73.5703 27.7168Z" stroke="white" stroke-width="6"/>
</svg>
